
<svg width="130px" height="50px" viewBox="0 0 130 50" version="1.1" xmlns="http://www.w3.org/2000/svg" xmlns:xlink="http://www.w3.org/1999/xlink">
    <!-- Generator: Sketch 52.2 (67145) - http://www.bohemiancoding.com/sketch -->
    <title>bitsgap</title>
    <desc>Created with Sketch.</desc>
    <defs>
        <polygon id="path-1" points="0 0 16.955 0 16.955 22.9756 0 22.9756"></polygon>
        <polygon id="path-3" points="0.1487 0.1056 17.7627 0.1056 17.7627 24 0.1487 24"></polygon>
    </defs>
    <g id="Bitsgap-Responsive-Web-V.2018" stroke="none" stroke-width="1" fill="none" fill-rule="evenodd">
        <g id="Desktop-Security-Bitsgap-V.2018" transform="translate(-1633.000000, -620.000000)">
            <g id="bitsgap" transform="translate(1633.000000, 620.000000)">
                <g transform="translate(10.000000, 10.000000)">
                    <g id="Group-3">
                        <mask id="mask-2" fill="white">
                            <use xlink:href="#path-1"></use>
                        </mask>
                        <g id="Clip-2"></g>
                        <path d="M16.955,16.3126 C16.955,18.2496 16.264,19.8576 14.881,21.1046 C13.498,22.3526 11.787,22.9756 9.778,22.9756 L0,22.9756 L0,-0.0004 L9.087,-0.0004 C11.062,-0.0004 12.708,0.6236 14.058,1.8376 C15.408,3.0526 16.099,4.5956 16.099,6.4666 C16.099,8.3696 15.375,9.9126 13.927,11.0616 C15.935,12.2096 16.955,13.9826 16.955,16.3126 Z M4.543,4.2336 L4.543,9.2886 L9.087,9.2886 C10.502,9.2886 11.556,8.2056 11.556,6.7616 C11.556,5.3176 10.535,4.2336 9.087,4.2336 L4.543,4.2336 Z M9.778,18.7426 C11.325,18.7426 12.445,17.5926 12.445,16.0176 C12.445,14.4746 11.325,13.3266 9.778,13.3266 L4.543,13.3266 L4.543,18.7426 L9.778,18.7426 Z" id="Fill-1" fill="#fff" mask="url(#mask-2)"></path>
                    </g>
                    <polygon id="Fill-4" fill="#fff" points="23.2621 23.0724 19.1471 23.0724 19.0621 6.5644 23.3091 6.5644 23.3091 22.9754"></polygon>
                    <path d="M19.0619,4.5138 L19.0619,1.0258 L20.8389,1.0258 C22.2039,1.0258 23.3089,2.1288 23.3089,3.4888 L23.3089,4.5138 L19.0619,4.5138 Z" id="Fill-6" fill="#fff"></path>
                    <path d="M45.663,13.0304 C48.067,13.5234 51.194,14.6724 51.162,18.1834 C51.162,19.8574 50.536,21.1714 49.252,22.0904 C48.001,22.9754 46.42,23.4354 44.544,23.4354 C41.153,23.4354 38.848,22.1234 37.63,19.5294 L39.374,18.5514 C40.306,18.0294 41.436,18.2014 42.255,18.8854 C42.82,19.3564 43.578,19.5944 44.544,19.5944 C46.059,19.5944 46.816,19.1354 46.816,18.1834 C46.816,17.2984 45.498,16.8054 43.82,16.3784 C41.383,15.7554 38.322,14.7374 38.322,11.3234 C38.322,9.7164 38.914,8.4354 40.099,7.5164 C41.317,6.5644 42.799,6.1054 44.577,6.1054 C47.244,6.1054 49.548,7.3524 50.832,9.5844 L47.211,11.5534 C46.684,10.4374 45.795,9.8804 44.577,9.8804 C43.49,9.8804 42.667,10.4054 42.667,11.2254 C42.667,12.1114 43.984,12.6044 45.663,13.0304" id="Fill-8" fill="#fff"></path>
                    <g id="Group-12" transform="translate(52.000000, 6.000000)">
                        <mask id="mask-4" fill="white">
                            <use xlink:href="#path-3"></use>
                        </mask>
                        <g id="Clip-11"></g>
                        <path d="M13.6147,0.5646 L17.7627,0.5646 L17.7627,16.1886 C17.7627,18.7156 16.9067,20.6526 15.2277,21.9986 C13.5487,23.3436 11.5407,24.0006 9.1707,24.0006 C5.6147,24.0006 2.8157,22.6216 1.3667,19.9966 L2.7257,19.2196 C3.8397,18.5846 5.2157,18.6616 6.2647,19.3966 C7.0567,19.9516 8.0717,20.2256 9.3017,20.2256 C11.9687,20.2256 13.6147,18.7816 13.6147,16.1886 L13.6147,14.4166 C12.3637,16.0896 10.6187,16.9106 8.3467,16.9106 C6.0097,16.9106 4.0667,16.0896 2.4867,14.4816 C0.9387,12.8396 0.1487,10.8376 0.1487,8.5076 C0.1487,6.1776 0.9387,4.2076 2.5197,2.5666 C4.0997,0.9256 6.0427,0.1056 8.3467,0.1056 C10.6187,0.1056 12.3637,0.9256 13.6147,2.5996 L13.6147,0.5646 Z M12.2977,5.3236 C11.4417,4.4706 10.3547,4.0436 9.0057,4.0436 C7.6557,4.0436 6.5687,4.4706 5.6797,5.3236 C4.8247,6.1446 4.3957,7.2276 4.3957,8.5076 C4.3957,11.1336 6.3387,13.0046 9.0057,13.0046 C11.6727,13.0046 13.6147,11.1336 13.6147,8.5076 C13.6147,7.2276 13.1867,6.1446 12.2977,5.3236 Z" id="Fill-10" fill="#fff" mask="url(#mask-4)"></path>
                    </g>
                    <path d="M84.643,6.5646 L88.89,6.5646 L88.89,23.1806 L84.643,23.1806 L84.643,21.0396 C83.36,22.6476 81.581,23.4356 79.277,23.4356 C77.071,23.4356 75.195,22.6156 73.614,20.9406 C72.067,19.2666 71.277,17.1996 71.277,14.7706 C71.277,12.3416 72.067,10.3066 73.614,8.6326 C75.195,6.9586 77.071,6.1056 79.277,6.1056 C81.581,6.1056 83.36,6.8936 84.643,8.5016 L84.643,6.5646 Z M80.067,19.3986 C81.384,19.3986 82.47,18.9716 83.327,18.1186 C84.215,17.2326 84.643,16.1166 84.643,14.7706 C84.643,13.4246 84.215,12.3086 83.327,11.4556 C82.47,10.5686 81.384,10.1426 80.067,10.1426 C78.75,10.1426 77.664,10.5686 76.808,11.4556 C75.952,12.3086 75.524,13.4246 75.524,14.7706 C75.524,16.1166 75.952,17.2326 76.808,18.1186 C77.664,18.9716 78.75,19.3986 80.067,19.3986 Z" id="Fill-13" fill="#fff"></path>
                    <path d="M106.9154,8.6324 C108.4954,10.3064 109.2854,12.3414 109.2854,14.7704 C109.2854,17.1994 108.4954,19.2664 106.9154,20.9404 C105.3674,22.6154 103.4584,23.4354 101.2524,23.4354 C98.9474,23.4354 97.1704,22.6474 95.9194,21.0394 L95.9194,29.5414 L94.1364,29.5414 C92.7744,29.5414 91.6724,28.4404 91.6724,27.0834 L91.6724,6.5644 L95.9194,6.5644 L95.9194,8.5014 C97.1704,6.8934 98.9474,6.1054 101.2524,6.1054 C103.4584,6.1054 105.3674,6.9584 106.9154,8.6324 M100.4624,19.3984 C101.7794,19.3984 102.8654,18.9714 103.7224,18.1184 C104.6104,17.2324 105.0384,16.1164 105.0384,14.7704 C105.0384,13.4244 104.6104,12.3084 103.7224,11.4554 C102.8654,10.5694 101.7794,10.1424 100.4624,10.1424 C99.1444,10.1424 98.0594,10.5694 97.2024,11.4554 C96.3474,12.3084 95.9194,13.4244 95.9194,14.7704 C95.9194,16.1164 96.3474,17.2324 97.2024,18.1184 C98.0594,18.9714 99.1444,19.3984 100.4624,19.3984" id="Fill-15" fill="#fff"></path>
                    <path d="M32.2309,1.0265 L30.4499,1.0265 C29.0879,1.0265 27.9839,2.1275 27.9839,3.4855 L27.9839,6.5645 L25.1199,6.5645 L25.1199,10.6345 L27.9839,10.6345 L27.9839,17.4625 C27.9839,21.9585 30.1239,23.6325 35.9509,22.9755 L35.9509,19.1355 C33.5149,19.2665 32.2309,19.2345 32.2309,17.4625 L32.2309,10.6345 L35.9509,10.6345 L35.9509,6.5645 L32.2309,6.5645 L32.2309,1.0265 Z" id="Fill-17" fill="#fff"></path>
                </g>
            </g>
        </g>
    </g>
</svg>