<?xml version="1.0" encoding="UTF-8"?>
<svg width="160px" height="40px" viewBox="0 0 160 40" version="1.1" xmlns="http://www.w3.org/2000/svg" xmlns:xlink="http://www.w3.org/1999/xlink">
    <!-- Generator: Sketch 52.2 (67145) - http://www.bohemiancoding.com/sketch -->
    <title>therock</title>
    <desc>Created with Sketch.</desc>
    <defs>
        <polygon id="path-1" points="0 34 132.842185 34 132.842185 0 0 0"></polygon>
    </defs>
    <g id="Bitsgap-Responsive-Web-V.2018" stroke="none" stroke-width="1" fill="none" fill-rule="evenodd">
        <g id="Exchanges-Bitsgap-V.2018" transform="translate(-1121.000000, -1738.000000)">
            <g id="exchanges-block" transform="translate(359.000000, 1108.000000)">
                <g id="platforms-on" transform="translate(94.000000, 150.000000)">
                    <g id="exchanges-5" transform="translate(0.000000, 480.000000)">
                        <g id="therock" transform="translate(668.000000, 0.000000)">
                            <g transform="translate(14.000000, 1.000000)">
                                <path d="M0.506792483,21.4617484 C0.301847517,20.8255905 0.27846094,20.1552537 0.177952215,19.5004853 C0.00674818792,18.3867168 -0.0262786577,17.2613168 0.0176381208,16.1364537 C0.106542819,13.8584537 0.60176698,11.67798 1.59417906,9.61507474 C2.43627436,7.86479053 3.56025826,6.31134842 4.91382336,4.93703263 C7.0186153,2.80004316 9.53865289,1.34126421 12.4371603,0.560695789 C13.9239039,0.160569474 15.4454596,-0.0224936842 16.983618,0.00220105263 C19.6727173,0.0453273684 22.2223898,0.66878 24.6460247,1.85180105 C27.1856999,3.09119053 29.2435401,4.88227474 30.8491804,7.18944316 C32.2032811,9.13531684 33.1000046,11.2923484 33.5754126,13.6172326 C33.9531683,15.4645063 34.0040475,17.3298537 33.8051723,19.2014642 C33.7125187,20.0724011 33.5604166,20.9336747 33.2683522,21.7641695 C33.0050301,22.5128853 32.4771361,22.8090432 31.7580435,22.4885484 C29.5543495,21.5066642 27.5300717,20.2815905 26.2680891,18.1080958 C25.6953858,17.1215589 25.4142113,16.0414326 25.2896019,14.9212221 C25.0876918,13.1068747 24.4839254,11.4498221 23.4716972,9.93091684 C22.1156328,7.89539053 20.2870166,6.35823263 18.3141536,4.97139053 C17.7155643,4.55050632 17.2471187,4.68095895 16.9064958,5.36149579 C16.0483334,7.07652737 15.205167,8.79925368 14.3586086,10.5201905 C14.1924032,10.8580432 13.9829952,11.1602853 13.7134247,11.4253063 C13.2874677,11.8442221 12.7631442,11.9345905 12.2091858,11.8617589 C11.6630824,11.7898221 11.3269227,12.0151168 11.0237898,12.4555063 C9.94211597,14.0266642 8.8281294,15.5754537 7.72788913,17.1337274 C7.49009584,17.4705063 7.26926228,17.8198116 7.02147168,18.1488958 C6.28738309,19.1238011 5.61417101,19.1968116 4.67299517,18.41678 C3.82786497,17.71638 3.69914953,17.7378537 2.98898309,18.6064642 C2.24686094,19.5140853 1.4895643,20.4098958 0.734052886,21.30678 C0.681209933,21.3695905 0.63247302,21.4613905 0.506792483,21.4617484" id="Fill-1" fill="#354148"></path>
                                <path d="M8.34943651,23.30802 C8.81056268,22.6054726 9.21545396,22.0099358 9.59749423,21.4002621 C10.0416607,20.6912726 10.5324217,20.0082305 10.7941372,19.1961674 C10.9469533,18.7230305 10.7978862,18.3581568 10.4453023,18.0625358 C10.1909063,17.8494095 10.1300298,17.7069674 10.4602983,17.4941989 C10.8153815,17.2651463 11.1567184,17.0053147 11.4405707,16.6824937 C11.7977962,16.2762832 12.0527278,15.8453779 12.0416593,15.2652305 C12.0223788,14.2566832 12.3406862,14.0807779 13.3546996,14.1593358 C14.5706231,14.2536411 15.8008285,14.2738621 16.9951506,13.8959253 C17.6160553,13.69962 17.9232942,13.2615568 17.9909546,12.6495568 C18.0887855,11.7621568 17.9947036,10.8760095 17.8759855,9.99791474 C17.6855009,8.58780947 17.4596687,7.18253579 17.2359788,5.68957789 C17.9731023,6.24324105 18.6723788,6.72103053 19.3168486,7.26395684 C20.1730472,7.98529368 21.0272821,8.71360947 21.7379842,9.59188316 C22.8246566,10.9347042 23.6494352,12.3975989 23.8920486,14.1400095 C24.1059197,15.6746621 24.3701345,17.1939253 25.1381426,18.5743253 C25.7478003,19.6701989 26.528662,20.6162937 27.5066137,21.4020516 C28.5191989,22.2155463 29.6449681,22.8291568 30.8344701,23.3371884 C31.1791989,23.4844621 31.5214285,23.6610832 31.7679694,23.9456095 C32.1821439,24.4235779 32.0298634,24.9407358 31.7690405,25.4244305 C31.2782795,26.33402 30.6873667,27.1770411 30.0220097,27.9688832 C28.9858593,29.2020095 27.7777909,30.2459884 26.4420781,31.1310621 C25.2798902,31.9010726 24.0296902,32.5127147 22.7093305,32.9761884 C21.3202392,33.46382 19.8954432,33.7716095 18.431015,33.9147674 C15.2241976,34.2286411 12.1760875,33.6758726 9.28775597,32.2507358 C9.01265128,32.1150937 8.75236403,31.9348937 8.51492779,31.7391253 C7.93240564,31.2584726 7.92651436,30.6190937 8.51260698,29.9401674 C9.00943785,29.3641358 9.53019087,28.8081463 10.0538003,28.2562726 C11.3248875,26.9170305 12.6095426,25.5910305 13.8772379,24.2487463 C14.9276701,23.1367674 15.8779506,21.9521358 16.367462,20.4697358 C16.4986768,20.0721147 16.6611332,19.6755674 16.5395587,19.2321358 C16.3981681,18.7164095 16.0380862,18.4073674 15.4207519,18.3182516 C15.0542432,18.2654621 14.6134687,18.5272621 14.3849587,18.9384832 C14.1091399,19.4345253 13.9088365,19.9688621 13.5839238,20.4409253 C12.9678392,21.3363779 12.1412754,21.9551779 11.165109,22.4134621 C10.2971278,22.8209253 9.37933852,23.0415674 8.34943651,23.30802" id="Fill-3" fill="#197A84"></path>
                                <polygon id="Fill-5" fill="#197A84" points="48.3943976 7.13128526 48.3943976 9.61131684 45.502317 9.61131684 45.502317 18.4044326 42.9317573 18.4044326 42.9317573 9.61131684 40.0398553 9.61131684 40.0398553 7.13128526"></polygon>
                                <polygon id="Fill-7" fill="#197A84" points="59.1592391 7.13128526 61.7297988 7.13128526 61.7297988 18.4044326 59.1592391 18.4044326 59.1592391 13.9275274 55.6246525 13.9275274 55.6246525 18.4044326 53.0540928 18.4044326 53.0540928 7.13128526 55.6246525 7.13128526 55.6246525 11.4471379 59.1592391 11.4471379"></polygon>
                                <polygon id="Fill-9" fill="#197A84" points="69.7635165 15.9243295 74.2621299 15.9243295 74.2621299 18.4043611 67.1929568 18.4043611 67.1929568 7.13121368 74.1817944 7.13121368 74.1817944 9.61142421 69.7635165 9.61142421 69.7635165 11.4794558 73.7801165 11.4794558 73.7801165 13.9274558 69.7635165 13.9274558"></polygon>
                                <path d="M81.8138521,9.54689579 L81.8138521,12.4456642 L83.7417272,12.4456642 C84.4486803,12.4456642 85.0270964,11.8175589 85.0270964,10.9963695 C85.0270964,10.1750011 84.4486803,9.54689579 83.7417272,9.54689579 L81.8138521,9.54689579 Z M85.1556333,18.4044326 L83.0347742,14.7004011 L81.8138521,14.7004011 L81.8138521,18.4044326 L79.2432923,18.4044326 L79.2432923,7.13128526 L83.7417272,7.13128526 C84.8182239,7.13128526 85.7179823,7.50152737 86.4731366,8.25865368 C87.228291,9.01542211 87.5976561,9.91731684 87.5976561,10.9963695 C87.5976561,12.3651379 86.7623447,13.6215274 85.5251769,14.2655589 L87.9191769,18.4044326 L85.1556333,18.4044326 Z" id="Fill-11" fill="#354148"></path>
                                <path d="M97.864667,16.1176105 C98.7965596,16.1176105 99.5677811,15.8116105 100.19422,15.1835053 C100.821016,14.5555789 101.14218,13.7503158 101.14218,12.7677158 C101.14218,11.7854737 100.821016,10.9802105 100.19422,10.3521053 C99.5677811,9.724 98.7965596,9.41817895 97.864667,9.41817895 C96.9327744,9.41817895 96.1456643,9.724 95.5188683,10.3521053 C94.8924294,10.9802105 94.5871542,11.7854737 94.5871542,12.7677158 C94.5871542,13.7503158 94.8924294,14.5555789 95.5188683,15.1835053 C96.1456643,15.8116105 96.9327744,16.1176105 97.864667,16.1176105 M97.864667,18.6298526 C96.242067,18.6298526 94.8602952,18.0663474 93.7195301,16.9389789 C92.578765,15.8116105 92.016416,14.4265579 92.016416,12.7677158 C92.016416,11.1090526 92.578765,9.724 93.7195301,8.59681053 C94.8602952,7.46944211 96.242067,6.90557895 97.864667,6.90557895 C99.4874455,6.90557895 100.869217,7.46944211 102.009804,8.59681053 C103.150569,9.724 103.712918,11.1090526 103.712918,12.7677158 C103.712918,14.4265579 103.150569,15.8116105 102.009804,16.9389789 C100.869217,18.0663474 99.4874455,18.6298526 97.864667,18.6298526" id="Fill-13" fill="#354148"></path>
                                <path d="M109.86698,16.9550305 C108.758349,15.8276621 108.212067,14.4265042 108.212067,12.7678411 C108.212067,11.1089989 108.758349,9.70802 109.86698,8.59675684 C110.975432,7.46938842 112.373271,6.90570421 114.060318,6.90570421 C116.068529,6.90570421 117.90018,7.90423053 118.880274,9.51475684 L116.663012,10.8029989 C116.164931,9.91738842 115.200905,9.41812526 114.060318,9.41812526 C113.064157,9.41812526 112.260801,9.72412526 111.666497,10.3361253 C111.072013,10.9481253 110.782627,11.7532095 110.782627,12.7678411 C110.782627,13.7824726 111.072013,14.5877358 111.666497,15.1995568 C112.260801,15.8115568 113.064157,16.1175568 114.060318,16.1175568 C115.200905,16.1175568 116.197066,15.5862621 116.663012,14.7325042 L118.880274,16.0209253 C117.916247,17.6312726 116.100663,18.6297989 114.060318,18.6297989 C112.373271,18.6297989 110.975432,18.0662937 109.86698,16.9550305" id="Fill-15" fill="#354148"></path>
                                <polygon id="Fill-17" fill="#354148" points="132.714059 18.4044326 129.790023 18.4044326 126.190989 13.1865063 126.190989 18.4044326 123.620429 18.4044326 123.620429 7.13128526 126.190989 7.13128526 126.190989 12.0269274 129.629352 7.13128526 132.553388 7.13128526 128.761727 12.6228221"></polygon>
                                <polygon id="Fill-19" fill="#354148" points="46.7503748 23.2945632 46.7503748 24.0191211 44.5338271 24.0191211 44.5338271 29.0573842 43.548556 29.0573842 43.548556 24.0191211 41.3427197 24.0191211 41.3427197 23.2945632"></polygon>
                                <path d="M56.5480831,24.0108716 L56.5480831,26.1596716 L58.5505811,26.1596716 C58.9253019,26.1596716 59.2359328,26.0524821 59.4928281,25.8466926 C59.7606133,25.6326716 59.8889717,25.3774926 59.8889717,25.0809768 C59.8889717,24.78464 59.7606133,24.5294611 59.4928281,24.3236716 C59.2359328,24.1178821 58.9253019,24.0108716 58.5505811,24.0108716 L56.5480831,24.0108716 Z M59.9960858,29.0573663 L58.3149301,26.8511242 L56.5480831,26.8511242 L56.5480831,29.0573663 L55.5521005,29.0573663 L55.5521005,23.2945453 L58.5505811,23.2945453 C59.1929086,23.2945453 59.7391905,23.4675874 60.1996026,23.8213663 C60.6600146,24.1672716 60.8847757,24.5872611 60.8847757,25.0809768 C60.8847757,25.4515768 60.7349945,25.7973032 60.4457864,26.1020505 C60.1567569,26.4066189 59.792569,26.6288716 59.3321569,26.7521663 L61.0990039,29.0573663 L59.9960858,29.0573663 Z" id="Fill-21" fill="#354148"></path>
                                <path d="M71.2071467,27.0486105 L73.8949964,27.0486105 L72.5457158,24.2085368 L71.2071467,27.0486105 Z M74.8479548,29.0574737 L74.237583,27.7649368 L70.8645601,27.7649368 L70.2541883,29.0574737 L69.1941158,29.0574737 L71.9889011,23.2944737 L73.113242,23.2944737 L75.9082058,29.0574737 L74.8479548,29.0574737 Z" id="Fill-23" fill="#354148"></path>
                                <path d="M87.5368153,28.3328621 C88.2971468,28.3328621 88.928763,28.1272516 89.4107764,27.7154937 C89.8926113,27.3039147 90.1389737,26.7933779 90.1389737,26.1760095 C90.1389737,25.5586411 89.8926113,25.0482832 89.4107764,24.6365253 C88.928763,24.2249463 88.2971468,24.0191568 87.5368153,24.0191568 L85.6092972,24.0191568 L85.6092972,28.3328621 L87.5368153,28.3328621 Z M87.5368153,23.2945989 C88.5540421,23.2945989 89.400065,23.5744726 90.0747052,24.1343989 C90.7493455,24.6859147 91.0919321,25.3691358 91.0919321,26.1760095 C91.0919321,26.9827042 90.7493455,27.6661042 90.0747052,28.2258516 C89.400065,28.7773674 88.5540421,29.05742 87.5368153,29.05742 L84.6134932,29.05742 L84.6134932,23.2945989 L87.5368153,23.2945989 Z" id="Fill-25" fill="#354148"></path>
                                <mask id="mask-2" fill="white">
                                    <use xlink:href="#path-1"></use>
                                </mask>
                                <g id="Clip-28"></g>
                                <polygon id="Fill-27" fill="#354148" mask="url(#mask-2)" points="100.118472 29.0572947 101.114455 29.0572947 101.114455 23.2944737 100.118472 23.2944737"></polygon>
                                <polygon id="Fill-29" fill="#354148" mask="url(#mask-2)" points="115.195317 23.2945632 116.191299 23.2945632 116.191299 29.0573842 115.388122 29.0573842 111.533086 24.7519105 111.533086 29.0573842 110.537282 29.0573842 110.537282 23.2945632 111.340459 23.2945632 115.195317 27.5921632"></polygon>
                                <path d="M132.842114,26.2007042 L132.842114,26.5466095 C132.842114,27.2956832 132.510239,27.9212832 131.835598,28.4235884 C131.160958,28.9174832 130.27209,29.1644305 129.169172,29.1644305 C128.023408,29.1644305 127.080982,28.8763253 126.331541,28.2999358 C125.592632,27.7154937 125.217733,27.0075779 125.217733,26.1760095 C125.217733,25.34462 125.592632,24.6365253 126.331541,24.0603147 C127.080982,23.4756937 128.023408,23.1875884 129.147749,23.1875884 C129.843812,23.1875884 130.475606,23.3192937 131.053844,23.5744726 C131.632082,23.8298305 132.081782,24.1590937 132.392235,24.5789042 L131.535679,24.9659674 C131.107401,24.3401884 130.175687,23.9286095 129.137037,23.9286095 C128.280303,23.9286095 127.573707,24.1426305 127.027604,24.5789042 C126.4815,25.0069463 126.203004,25.5419989 126.203004,26.1760095 C126.203004,26.8098411 126.4815,27.3450726 127.027604,27.7731147 C127.584419,28.2013358 128.301726,28.4151779 129.179883,28.4151779 C130.678945,28.4151779 131.642793,27.7895779 131.846131,26.8921568 L129.094192,26.8921568 L129.094192,26.2007042 L132.842114,26.2007042 Z" id="Fill-30" fill="#354148" mask="url(#mask-2)"></path>
                            </g>
                        </g>
                    </g>
                </g>
            </g>
        </g>
    </g>
</svg>